<?xml version="1.0" encoding="utf-8"?>
<!-- Generator: Adobe Illustrator 16.0.3, SVG Export Plug-In . SVG Version: 6.00 Build 0)  -->
<!DOCTYPE svg PUBLIC "-//W3C//DTD SVG 1.1//EN" "http://www.w3.org/Graphics/SVG/1.1/DTD/svg11.dtd">
<svg version="1.1" id="Layer_1" xmlns="http://www.w3.org/2000/svg" xmlns:xlink="http://www.w3.org/1999/xlink" x="0px" y="0px"
	 width="682.666px" height="682.666px" viewBox="0 0 682.666 682.666" enable-background="new 0 0 682.666 682.666"
	 xml:space="preserve">
<path fill="#FFFFFF" d="M604.672,0H35.297C15.801,0.012-0.004,15.824,0,35.328v569.374c0.012,19.496,15.824,35.301,35.328,35.297
	h306.547v-247.5H258.75v-96.874h83.125v-71.293c0-82.676,50.473-127.676,124.223-127.676c35.324,0,65.68,2.633,74.527,3.809v86.41
	H489.77c-40.125,0-47.895,19.066-47.895,47.051v61.699h95.938l-12.5,96.874h-83.438v247.5h162.797
	c19.508,0.004,35.324-15.805,35.328-35.313c0-0.004,0-0.008,0-0.016V35.297C639.992,15.801,624.176-0.004,604.672,0z"/>
</svg>
