<?xml version="1.0" encoding="utf-8"?>
<!-- Generator: Adobe Illustrator 16.0.3, SVG Export Plug-In . SVG Version: 6.00 Build 0)  -->
<!DOCTYPE svg PUBLIC "-//W3C//DTD SVG 1.1//EN" "http://www.w3.org/Graphics/SVG/1.1/DTD/svg11.dtd">
<svg version="1.1" id="Bold" xmlns="http://www.w3.org/2000/svg" xmlns:xlink="http://www.w3.org/1999/xlink" x="0px" y="0px"
	 width="512px" height="512px" viewBox="0 0 512 512" enable-background="new 0 0 512 512" xml:space="preserve">
<path fill="#FFFFFF" d="M256,512.001c141.312,0,256-114.688,256-256.001C512,114.688,397.312,0,256,0C114.688,0,0,114.688,0,256
	C0,397.312,114.688,512.001,256,512.001z M359.936,376.662v0.021c-17.216,0-71.595-60.331-224.427-29.014
	c-4.031,1.045-9.301,2.688-12.288,2.688c-19.52,0-23.253-29.205-2.261-33.664c84.544-18.666,170.943-17.023,244.629,27.051
	C383.168,354.966,375.701,376.662,359.936,376.662L359.936,376.662z M387.734,308.97c-2.411-0.64-1.707,1.473-12.736-4.33
	c-64.533-38.188-160.704-53.59-246.293-30.357c-4.949,1.344-7.638,2.688-12.288,2.688c-22.849,0-28.907-34.368-4.011-41.387
	c100.607-28.267,208.533-11.775,283.669,32.918c8.362,4.949,11.669,11.37,11.669,20.33
	C407.637,299.969,398.976,308.97,387.734,308.97z M97.024,149.291c96.491-28.245,242.518-19.328,333.313,33.664
	c23.274,13.419,14.122,47.359-10.624,47.359l-0.021-0.021c-5.376,0-8.683-1.345-13.334-4.032
	c-73.45-43.861-204.885-54.379-289.919-30.635c-3.733,1.024-8.385,2.667-13.334,2.667c-13.632,0-24.042-10.646-24.042-24.363
	C79.062,159.915,87.744,151.978,97.024,149.291L97.024,149.291z"/>
</svg>
