<?xml version="1.0" encoding="utf-8"?>
<!-- Generator: Adobe Illustrator 16.0.3, SVG Export Plug-In . SVG Version: 6.00 Build 0)  -->
<!DOCTYPE svg PUBLIC "-//W3C//DTD SVG 1.1//EN" "http://www.w3.org/Graphics/SVG/1.1/DTD/svg11.dtd">
<svg version="1.1" id="Layer_1" xmlns="http://www.w3.org/2000/svg" xmlns:xlink="http://www.w3.org/1999/xlink" x="0px" y="0px"
	 width="682px" height="682px" viewBox="0 0 682 682" enable-background="new 0 0 682 682" xml:space="preserve">
<path fill="#FFFFFF" d="M626.18,64.191c-7.368-27.391-28.964-48.983-56.352-56.358c-50.033-13.69-250.169-13.69-250.169-13.69
	s-200.129,0-250.162,13.171c-26.86,7.368-48.983,29.491-56.351,56.878C-0.02,114.22-0.02,217.974-0.02,217.974
	s0,104.277,13.167,153.784c7.375,27.387,28.964,48.979,56.354,56.354c50.557,13.693,250.166,13.693,250.166,13.693
	s200.128,0,250.161-13.17c27.392-7.372,48.983-28.964,56.359-56.352c13.162-50.033,13.162-153.783,13.162-153.783
	S639.877,114.22,626.18,64.191z M255.94,313.827V122.123l166.424,95.852L255.94,313.827z"/>
</svg>
