<?xml version="1.0" encoding="utf-8"?>
<!-- Generator: Adobe Illustrator 16.0.3, SVG Export Plug-In . SVG Version: 6.00 Build 0)  -->
<!DOCTYPE svg PUBLIC "-//W3C//DTD SVG 1.1//EN" "http://www.w3.org/Graphics/SVG/1.1/DTD/svg11.dtd">
<svg version="1.1" id="Layer_1" xmlns="http://www.w3.org/2000/svg" xmlns:xlink="http://www.w3.org/1999/xlink" x="0px" y="0px"
	 width="682.666px" height="682.666px" viewBox="0 0 682.666 682.666" enable-background="new 0 0 682.666 682.666"
	 xml:space="preserve">
<path fill="#FFFFFF" d="M451.485,109.723c-1.871,0-8.352,0.922-14.406,2.043c-26.766,4.992-184.539,37.148-187.234,38.172
	c-4.172,1.578-8.301,5.32-10.258,9.301l-1.66,3.375c0,0-0.781,238.71-1.992,241.394c-1.836,4.094-5.918,7.965-9.68,9.199
	c-1.781,0.586-8.832,2.207-15.664,3.598c-31.652,6.445-43.41,11.09-53.359,21.086c-5.648,5.672-9.832,13.418-11.641,21.543
	c-1.727,7.77-1.145,19.395,1.316,26.461c5.141,14.746,16.539,25.199,31.891,29.223c14.492,3.793,41.617-0.43,55.496-8.637
	c5.793-3.434,13.254-10.637,17.137-16.559c1.535-2.344,3.848-7.066,5.137-10.492c4.52-12.008,4.66-225.858,5.238-228.554
	c0.977-4.566,4.031-7.914,8.238-9.047c3.789-1.023,155.715-31.766,159.988-32.375c4.023-0.57,7.824,0.863,9.652,3.652
	c1.234,1.879,4.297,149.409,0.156,154.323c-3.008,3.578-9.27,4.957-24.707,8.188c-23.496,4.906-31.539,7.234-40.531,11.73
	c-11.238,5.617-17.477,11.773-22.297,21.992c-3.406,7.227-4.684,12.648-4.672,19.844c0.02,12.867,4.359,22.926,14.145,32.766
	c6.723,6.766,12.871,10.313,21.352,12.309c9.527,2.246,28.934,0.766,42.207-3.219c18.785-5.641,32.047-19.313,37.48-38.625
	c1.059-3.773,1.598-7.656,1.602-11.574c0.027-42.418,0.16-299.589-0.402-301.538C462.246,113.196,457.688,109.711,451.485,109.723z"
	/>
<path fill="#FFFFFF" d="M320,0C143.266,0,0,143.266,0,319.999c0,176.734,143.266,320,320,320s320-143.266,320-320
	C640,143.266,496.735,0,320,0z M320,613.12c-161.883,0-293.121-131.238-293.121-293.121c0-161.882,131.238-293.12,293.121-293.12
	s293.121,131.238,293.121,293.12C613.121,481.882,481.883,613.12,320,613.12z"/>
</svg>
