<?xml version="1.0" encoding="utf-8"?>
<!-- Generator: Adobe Illustrator 16.0.3, SVG Export Plug-In . SVG Version: 6.00 Build 0)  -->
<!DOCTYPE svg PUBLIC "-//W3C//DTD SVG 1.1//EN" "http://www.w3.org/Graphics/SVG/1.1/DTD/svg11.dtd">
<svg version="1.1" id="Layer_1" xmlns="http://www.w3.org/2000/svg" xmlns:xlink="http://www.w3.org/1999/xlink" x="0px" y="0px"
	 width="681px" height="681px" viewBox="0 0 681 681" enable-background="new 0 0 681 681" xml:space="preserve">
<path fill="#FFFFFF" d="M323.233,598.24c-1.651,0-6.992,0-8.066,0c-37.825,0-62.094-17.151-85.571-33.757
	c-16.21-11.451-31.512-22.267-49.534-25.269c-8.796-1.457-17.55-2.187-25.994-2.187c-15.251,0-27.269,2.351-36.045,4.068
	c-5.334,1.046-9.933,1.937-13.436,1.937c-3.658,0-7.602-0.789-9.331-6.669c-1.491-5.103-2.569-10.022-3.619-14.801
	c-2.683-12.275-4.588-19.83-9.726-20.619c-59.99-9.265-77.165-21.911-80.991-30.871c-0.539-1.277-0.852-2.569-0.918-3.835
	c-0.191-3.447,2.233-6.492,5.649-7.043C97.86,444.011,139.214,349.757,140.94,345.759c0.035-0.109,0.082-0.219,0.141-0.324
	c5.649-11.439,6.747-21.372,3.299-29.513c-6.328-14.903-26.975-21.458-40.64-25.796c-3.334-1.062-6.509-2.058-9.008-3.057
	c-27.264-10.776-29.524-21.833-28.454-27.468c1.827-9.616,14.66-16.312,25.05-16.312c2.843,0,5.345,0.515,7.453,1.495
	c12.275,5.735,23.317,8.655,32.863,8.655c13.177,0,18.928-5.54,19.631-6.266c-0.34-6.239-0.75-12.756-1.179-19.491
	c-2.741-43.592-6.157-97.775,7.648-128.69C199.083,6.312,286.74-0.903,312.629-0.903c0.659,0,11.354-0.113,11.354-0.113h1.53
	c25.937,0,113.796,7.211,155.162,99.954c13.794,30.938,10.374,85.157,7.625,128.718l-0.109,1.905
	c-0.387,6.06-0.758,11.955-1.069,17.605c0.667,0.675,5.957,5.767,17.896,6.223h0.008c9.09-0.343,19.519-3.248,30.978-8.601
	c3.346-1.569,7.074-1.897,9.608-1.897c3.889,0,7.813,0.749,11.072,2.108l0.203,0.082c9.254,3.287,15.329,9.772,15.462,16.554
	c0.12,6.392-4.756,15.988-28.674,25.434c-2.479,0.987-5.653,1.987-9.007,3.057c-13.686,4.338-34.312,10.893-40.641,25.796
	c-3.447,8.141-2.351,18.062,3.299,29.501c0.047,0.117,0.102,0.219,0.152,0.336c1.714,3.998,43.022,98.226,135.281,113.429
	c3.404,0.559,5.845,3.604,5.657,7.043c-0.078,1.289-0.402,2.589-0.948,3.858c-3.811,8.894-20.963,21.524-80.961,30.785
	c-4.911,0.758-6.816,7.148-9.737,20.549c-1.065,4.868-2.14,9.659-3.619,14.695c-1.28,4.373-4.002,6.415-8.593,6.415h-0.738
	c-3.182,0-7.695-0.578-13.427-1.702c-10.159-1.983-21.548-3.807-36.045-3.807c-8.465,0-17.218,0.729-26.022,2.187
	c-17.995,2.998-33.284,13.79-49.468,25.229C385.347,581.085,361.073,598.24,323.233,598.24"/>
</svg>
