<?xml version="1.0" encoding="utf-8"?>
<!-- Generator: Adobe Illustrator 16.0.3, SVG Export Plug-In . SVG Version: 6.00 Build 0)  -->
<!DOCTYPE svg PUBLIC "-//W3C//DTD SVG 1.1//EN" "http://www.w3.org/Graphics/SVG/1.1/DTD/svg11.dtd">
<svg version="1.1" id="Layer_1" xmlns="http://www.w3.org/2000/svg" xmlns:xlink="http://www.w3.org/1999/xlink" x="0px" y="0px"
	 width="841.89px" height="595.28px" viewBox="0 0 841.89 595.28" enable-background="new 0 0 841.89 595.28" xml:space="preserve">
<g>
	<defs>
		<rect id="SVGID_1_" width="841.89" height="595.28"/>
	</defs>
	<clipPath id="SVGID_2_">
		<use xlink:href="#SVGID_1_"  overflow="visible"/>
	</clipPath>
	<path clip-path="url(#SVGID_2_)" fill="#FFFFFF" d="M155.253,373.26l-8.227-39.817l-3.618-15.791l-0.334-2.303
		c-1.97-8.888-10.857-16.129-19.74-16.129h-8.883c-8.89,0-17.777,7.241-19.746,16.129l-2.964,14.148L57.345,496.153
		c-1.975,6.912,1.972,9.871,4.606,11.518c1.974,1.645,2.303,4.609,2.303,4.609H12.59c0,0,0.331-2.965,2.303-4.609
		c2.633-1.646,5.922-2.957,8.226-11.518l52.501-262.087c0.33-7.894-7.565-16.123-7.565-16.123s11.842-5.593,13.157-13.821
		l15.462-78.314c1.648-6.911-1.969-9.875-4.605-11.519c-1.973-1.645-2.303-4.606-2.303-4.606h41.135
		c0.656,0,1.645,0.328,2.303,0.328v-0.328h14.81c0,0-0.332,2.961-2.307,4.606c-2.633,1.644-6.25,4.608-4.603,11.519l15.463,78.314
		c1.315,8.228,13.161,13.821,13.161,13.821s-7.893,8.229-7.564,16.123l27.312,139.194c2.303,8.561,5.593,9.871,8.224,11.519
		c1.974,1.645,2.305,4.608,2.305,4.608h-51.659c0,0,0.321-2.964,2.304-4.608C153.278,383.131,157.226,380.173,155.253,373.26
		 M124.317,265c0.332-0.331,0.663-0.331,0.987-0.655c0.333,0,0.333-0.331,0.659-0.663c2.959-2.958,4.606-7.895,3.292-13.489
		l-0.333-0.99c-0.324-3.62-1.316-7.565-2.302-11.517l-0.324-2.3l-3.95-18.101c-1.975-8.885-4.938-8.885-6.912,0l-1.971,9.871
		l-2.636,12.833c-1.315,3.951-1.97,7.57-2.302,11.193c-1.647,8.553,2.962,15.134,10.529,15.134
		C121.029,266.316,122.674,265.986,124.317,265"/>
	<path clip-path="url(#SVGID_2_)" fill="#FFFFFF" d="M315.155,159.04c0-8.885-7.565-16.453-16.447-16.453h-32.91
		c-8.881,0-16.452,7.568-16.452,16.453v9.543c0,8.556,4.61,21.061,10.205,27.971c5.589,5.592,17.436,4.608,17.436,4.608
		s-2.959,12.503,2.303,19.084l58.243,68.116c5.597,6.91,10.535,19.746,10.535,28.962v55.608c0,9.214-7.573,16.454-16.455,16.454
		h-98.72c-9.217,0-16.452-7.24-16.452-16.454v-45.41c0-1.976,1.97-3.954,4.277-3.954h39.159c0,0-0.326,2.967-2.304,4.609
		c-2.631,1.648-8.227,2.962-8.227,11.522v0.328c0,8.883,7.571,16.449,16.452,16.449h32.91c8.882,0,16.447-7.566,16.447-16.449
		v-10.531c0-9.209-4.93-22.049-10.525-28.96l-53.305-62.521c-5.599-6.253-18.432-5.264-18.432-5.264s3.291-12.506-2.3-19.087
		l-3.624-4.276c-5.593-6.582-10.528-19.745-10.528-28.959v-54.294c0-8.887,7.235-16.453,16.452-16.453h98.72
		c8.882,0,16.455,7.566,16.455,16.453v45.41c0,1.973-1.977,3.949-4.284,3.949H304.63c0,0,0.331-2.962,2.302-4.607
		c2.634-1.646,8.223-2.961,8.223-11.519V159.04z"/>
	<path clip-path="url(#SVGID_2_)" fill="#FFFFFF" d="M517.19,389.387H463.22c0,0,0.334-2.964,2.305-4.608
		c2.633-1.647,8.228-2.958,8.228-11.519V249.203c0-9.214-7.236-16.45-16.451-16.45h-32.909c-8.882,0-16.449,7.236-16.449,16.45
		V373.26c0,8.561,5.586,9.871,8.221,11.519c1.981,1.645,2.304,4.608,2.304,4.608h-53.966c0,0,0.332-2.964,2.303-4.608
		c2.635-1.647,8.233-2.958,8.233-11.519V232.753c0-8.559-10.536-16.124-10.536-16.124s10.536-7.571,10.536-16.124v-74.697
		c0-8.559-5.598-9.875-8.233-11.519c-1.971-1.645-2.303-4.606-2.303-4.606h53.966c0,0-0.323,2.961-2.304,4.606
		c-2.635,1.644-8.221,2.96-8.221,11.519v58.243c0,9.213,7.567,16.454,16.449,16.454h32.909c9.215,0,16.451-7.241,16.451-16.454
		v-58.243c0-8.559-5.595-9.875-8.228-11.519c-1.971-1.645-2.305-4.606-2.305-4.606h53.971c0,0-0.332,2.961-2.303,4.606
		c-2.634,1.644-8.227,2.96-8.227,11.519v74.697c0,8.553,10.529,16.124,10.529,16.124s-10.529,7.565-10.529,16.124V373.26
		c0,8.561,5.593,9.871,8.227,11.519C516.858,386.423,517.19,389.387,517.19,389.387"/>
	<path clip-path="url(#SVGID_2_)" fill="#FFFFFF" d="M659.655,142.587h-66.135c-8.891,0-16.457,7.568-16.457,16.453v24.68
		c0,9.214,7.566,16.451,16.457,16.451h33.23c8.555,0,9.877-5.592,11.846-8.223c1.315-1.976,4.279-2.305,4.279-2.305v53.966
		c0,0-2.964-0.327-4.279-2.302c-1.969-2.636-3.291-8.227-11.846-8.227h-33.23c-8.891,0-16.457,7.57-16.457,16.452v90.496
		c0,9.211,7.566,16.448,16.457,16.448h66.135c8.554,0,9.873-5.594,11.85-8.229c1.316-1.97,4.277-2.303,4.277-2.303v39.163
		c0,2.305-1.975,4.279-3.949,4.279H533.624c0,0,0.332-2.964,2.302-4.608c2.636-1.648,8.235-2.958,8.235-11.519V232.752
		c0-8.559-10.537-16.124-10.537-16.124s10.537-7.57,10.537-16.124v-74.697c0-8.558-5.6-9.874-8.235-11.519
		c-1.97-1.645-2.302-4.605-2.302-4.605h138.209c1.975,0,3.949,1.972,3.949,4.278v39.156c0,0-2.961-0.326-4.277-2.303
		C669.528,148.18,668.209,142.587,659.655,142.587"/>
	<path clip-path="url(#SVGID_2_)" fill="#FFFFFF" d="M790.935,159.04c0-8.885-7.567-16.453-16.449-16.453h-32.909
		c-8.887,0-16.455,7.568-16.455,16.453v9.543c0,8.556,4.608,21.061,10.202,27.971c5.596,5.592,17.441,4.608,17.441,4.608
		s-2.959,12.503,2.303,19.084l58.246,68.116c5.596,6.91,10.53,19.746,10.53,28.962v55.608c0,9.214-7.568,16.454-16.458,16.454
		h-98.715c-9.214,0-16.454-7.24-16.454-16.454v-45.41c0-1.976,1.972-3.954,4.281-3.954h39.157c0,0-0.332,2.967-2.303,4.609
		c-2.635,1.648-8.231,2.962-8.231,11.522v0.328c0,8.883,7.568,16.449,16.455,16.449h32.909c8.882,0,16.449-7.566,16.449-16.449
		v-10.531c0-9.209-4.937-22.049-10.523-28.96l-53.311-62.521c-5.596-6.253-18.43-5.264-18.43-5.264s3.288-12.506-2.305-19.087
		l-3.618-4.276c-5.591-6.582-10.531-19.745-10.531-28.959v-54.294c0-8.887,7.24-16.453,16.454-16.453h98.715
		c8.89,0,16.458,7.566,16.458,16.453v45.41c0,1.973-1.978,3.949-4.28,3.949h-39.152c0,0,0.325-2.962,2.303-4.607
		c2.628-1.646,8.221-2.961,8.221-11.519V159.04z"/>
	<path clip-path="url(#SVGID_2_)" fill="#FFFFFF" d="M154.621,450.816c0,0-3.744,2.688-3.744,5.733v43.978
		c0,6.436-5.262,11.7-11.694,11.7h-23.399c-6.432,0-11.695-5.265-11.695-11.7V456.55c0-3.045-3.744-5.733-3.744-5.733
		s3.744-2.693,3.744-5.732v-20.589c0-6.432,5.263-11.694,11.695-11.694h23.399c6.432,0,11.694,5.263,11.694,11.694v20.589
		C150.876,448.123,154.621,450.816,154.621,450.816 M139.183,430.348c0-3.159-2.693-5.853-5.854-5.853h-11.693
		c-3.159,0-5.852,2.693-5.852,5.853v64.332c0,3.159,2.693,5.848,5.852,5.848h11.693c3.161,0,5.854-2.688,5.854-5.848V430.348z"/>
	<path clip-path="url(#SVGID_2_)" fill="#FFFFFF" d="M207.259,414.32v13.917c0,0-1.057-0.113-1.522-0.814
		c-0.703-0.936-1.168-2.928-4.213-2.928h-23.509c-3.158,0-5.848,2.693-5.848,5.853v8.77c0,3.277,2.69,5.852,5.848,5.852h11.814
		c3.039,0,3.509-1.99,4.209-2.926c0.47-0.703,1.52-0.817,1.52-0.817v19.182c0,0-1.05-0.115-1.52-0.817
		c-0.7-0.936-1.17-2.927-4.209-2.927h-11.814c-3.158,0-5.848,2.688-5.848,5.848v43.981c0,3.046,1.987,3.511,2.922,4.097
		c0.703,0.582,0.822,1.639,0.822,1.639h-19.187c0,0,0.12-1.057,0.818-1.639c0.936-0.586,2.926-1.051,2.926-4.097v-49.943
		c0-3.044-3.744-5.732-3.744-5.732s3.744-2.693,3.744-5.732v-26.555c0-3.04-1.99-3.506-2.926-4.095
		c-0.698-0.585-0.818-1.635-0.818-1.635h49.131C206.556,412.8,207.259,413.504,207.259,414.32"/>
	<path clip-path="url(#SVGID_2_)" fill="#FFFFFF" d="M298.487,512.228H279.3c0,0,0.12-1.057,0.823-1.639
		c0.934-0.586,2.921-1.05,2.921-4.097v-44.095c0-3.278-2.571-5.848-5.848-5.848H265.5c-3.158,0-5.848,2.569-5.848,5.848v44.095
		c0,3.047,1.987,3.511,2.923,4.097c0.703,0.582,0.822,1.639,0.822,1.639h-19.185c0,0,0.117-1.057,0.815-1.639
		c0.936-0.586,2.927-1.05,2.927-4.097V456.55c0-3.045-3.742-5.733-3.742-5.733s3.742-2.692,3.742-5.732v-26.555
		c0-3.04-1.991-3.506-2.927-4.095c-0.698-0.585-0.815-1.634-0.815-1.634h19.185c0,0-0.119,1.049-0.822,1.634
		c-0.936,0.589-2.923,1.055-2.923,4.095v20.706c0,3.273,2.69,5.849,5.848,5.849h11.696c3.277,0,5.848-2.575,5.848-5.849v-20.706
		c0-3.04-1.987-3.506-2.921-4.095c-0.703-0.585-0.823-1.634-0.823-1.634h19.187c0,0-0.119,1.049-0.818,1.634
		c-0.936,0.589-2.926,1.055-2.926,4.095v26.555c0,3.04,3.744,5.732,3.744,5.732s-3.744,2.688-3.744,5.733v49.942
		c0,3.047,1.99,3.511,2.926,4.097C298.368,511.171,298.487,512.228,298.487,512.228"/>
	<path clip-path="url(#SVGID_2_)" fill="#FFFFFF" d="M349.133,424.495h-23.508c-3.16,0-5.852,2.693-5.852,5.853v8.77
		c0,3.277,2.692,5.852,5.852,5.852h11.812c3.041,0,3.51-1.99,4.209-2.926c0.47-0.703,1.525-0.818,1.525-0.818v19.183
		c0,0-1.055-0.115-1.525-0.817c-0.699-0.936-1.168-2.927-4.209-2.927h-11.812c-3.16,0-5.852,2.688-5.852,5.848v32.169
		c0,3.276,2.692,5.848,5.852,5.848h23.508c3.045,0,3.511-1.986,4.214-2.922c0.465-0.702,1.519-0.822,1.519-0.822v13.923
		c0,0.818-0.703,1.521-1.405,1.521h-49.126c0,0,0.117-1.057,0.815-1.639c0.938-0.586,2.927-1.051,2.927-4.097V456.55
		c0-3.045-3.742-5.733-3.742-5.733s3.742-2.693,3.742-5.732v-26.555c0-3.04-1.989-3.506-2.927-4.095
		c-0.698-0.586-0.815-1.634-0.815-1.634h49.126c0.702,0,1.405,0.703,1.405,1.52v13.917c0,0-1.054-0.113-1.519-0.814
		C352.644,426.487,352.178,424.495,349.133,424.495"/>
	<path clip-path="url(#SVGID_2_)" fill="#FFFFFF" d="M401.186,462.165l6.551,45.848c0.469,1.758,1.99,2.108,2.692,2.576
		c0.584,0.582,0.816,1.639,0.816,1.639h-19.299c0,0,0.233-1.057,0.937-1.639c0.816-0.586,2.921-1.051,2.921-4.097l-6.082-41.872
		l-0.703-2.455c-0.934-3.159-2.688-5.615-6.549-5.615h-0.465c-3.16,0-5.849,2.569-5.849,5.848v44.095
		c0,3.046,1.986,3.511,2.921,4.097c0.703,0.582,0.823,1.639,0.823,1.639h-19.186c0,0,0.119-1.057,0.817-1.639
		c0.936-0.586,2.926-1.051,2.926-4.097V456.55c0-3.045-3.743-5.733-3.743-5.733s3.743-2.693,3.743-5.732v-26.555
		c0-3.04-1.99-3.506-2.926-4.095c-0.698-0.585-0.817-1.634-0.817-1.634h38.832c6.438,0,11.699,5.263,11.699,11.694v20.355
		c0,4.56-2.688,8.541-6.55,10.525C401.889,456.783,400.249,459.119,401.186,462.165 M382.005,444.851h11.694
		c3.159,0,5.847-2.689,5.847-5.85v-8.653c0-3.159-2.688-5.853-5.847-5.853h-11.694c-3.16,0-5.849,2.693-5.849,5.853v8.653
		C376.156,442.161,378.845,444.851,382.005,444.851"/>
	<path clip-path="url(#SVGID_2_)" fill="#FFFFFF" d="M518.033,512.228h-19.183c0,0,0.114-1.057,0.817-1.639
		c0.817-0.586,2.927-1.05,2.927-4.097v-60.355c0-3.158-1.174-3.509-2.576-0.583l-14.388,29.826c-1.4,2.927-3.623,2.927-5.029,0
		l-14.388-29.826c-1.403-2.926-2.572-2.575-2.572,0.583v60.355c0,3.047,1.986,3.511,2.922,4.097
		c0.702,0.582,0.823,1.639,0.823,1.639h-19.188c0,0,0.12-1.057,0.817-1.639c0.936-0.586,2.927-1.05,2.927-4.097V456.55
		c0-3.045-3.744-5.733-3.744-5.733s3.744-2.692,3.744-5.732v-26.555c0-3.04-1.991-3.506-2.927-4.095
		c-0.697-0.585-0.817-1.634-0.817-1.634h9.591c3.278,0,7.021,2.337,8.424,5.263l14.388,29.827c1.406,2.926,3.629,2.926,5.029,0
		l14.388-29.827c1.402-2.926,5.145-5.263,8.424-5.263h9.591c0,0-0.232,1.049-0.816,1.634c-0.938,0.589-2.929,1.055-2.929,4.095
		v26.555c0,3.04,3.745,5.732,3.745,5.732s-3.745,2.688-3.745,5.733v49.942c0,3.047,1.99,3.511,2.929,4.097
		C517.801,511.171,518.033,512.228,518.033,512.228"/>
	<path clip-path="url(#SVGID_2_)" fill="#FFFFFF" d="M568.675,424.495h-23.509c-3.159,0-5.852,2.693-5.852,5.853v8.77
		c0,3.277,2.692,5.852,5.852,5.852h11.813c3.04,0,3.51-1.99,4.208-2.926c0.471-0.703,1.525-0.818,1.525-0.818v19.183
		c0,0-1.055-0.115-1.525-0.817c-0.698-0.936-1.168-2.927-4.208-2.927h-11.813c-3.159,0-5.852,2.688-5.852,5.848v32.169
		c0,3.276,2.692,5.848,5.852,5.848h23.509c3.044,0,3.509-1.986,4.213-2.922c0.467-0.702,1.52-0.822,1.52-0.822v13.923
		c0,0.818-0.703,1.521-1.406,1.521h-49.126c0,0,0.118-1.057,0.818-1.639c0.935-0.586,2.925-1.051,2.925-4.097V456.55
		c0-3.045-3.743-5.733-3.743-5.733s3.743-2.693,3.743-5.732v-26.555c0-3.04-1.99-3.506-2.925-4.095
		c-0.7-0.586-0.818-1.634-0.818-1.634h49.126c0.703,0,1.406,0.703,1.406,1.52v13.917c0,0-1.053-0.113-1.52-0.814
		C572.184,426.487,571.719,424.495,568.675,424.495"/>
	<path clip-path="url(#SVGID_2_)" fill="#FFFFFF" d="M650.089,512.228h-19.183c0,0,0.115-1.057,0.817-1.639
		c0.817-0.586,2.927-1.05,2.927-4.097v-60.355c0-3.158-1.174-3.509-2.574-0.583l-14.39,29.826c-1.4,2.927-3.625,2.927-5.029,0
		l-14.389-29.826c-1.401-2.926-2.57-2.575-2.57,0.583v60.355c0,3.047,1.985,3.511,2.921,4.097c0.703,0.582,0.822,1.639,0.822,1.639
		h-19.187c0,0,0.119-1.057,0.816-1.639c0.938-0.586,2.926-1.05,2.926-4.097V456.55c0-3.045-3.742-5.733-3.742-5.733
		s3.742-2.692,3.742-5.732v-26.555c0-3.04-1.988-3.506-2.926-4.095c-0.697-0.585-0.816-1.634-0.816-1.634h9.591
		c3.278,0,7.021,2.337,8.423,5.263l14.389,29.827c1.404,2.926,3.629,2.926,5.029,0l14.39-29.827c1.4-2.926,5.144-5.263,8.421-5.263
		h9.592c0,0-0.234,1.049-0.818,1.634c-0.936,0.589-2.927,1.055-2.927,4.095v26.555c0,3.04,3.745,5.732,3.745,5.732
		s-3.745,2.688-3.745,5.733v49.942c0,3.047,1.991,3.511,2.927,4.097C649.854,511.171,650.089,512.228,650.089,512.228"/>
	<path clip-path="url(#SVGID_2_)" fill="#FFFFFF" d="M710.206,450.816c0,0-3.743,2.688-3.743,5.733v43.978
		c0,6.436-5.262,11.7-11.696,11.7H671.37c-6.434,0-11.695-5.265-11.695-11.7V456.55c0-3.045-3.744-5.733-3.744-5.733
		s3.744-2.693,3.744-5.732v-20.589c0-6.432,5.262-11.694,11.695-11.694h23.396c6.435,0,11.696,5.263,11.696,11.694v20.589
		C706.463,448.123,710.206,450.816,710.206,450.816 M694.767,430.348c0-3.159-2.69-5.853-5.852-5.853h-11.694
		c-3.158,0-5.851,2.693-5.851,5.853v64.332c0,3.159,2.692,5.848,5.851,5.848h11.694c3.161,0,5.852-2.688,5.852-5.848V430.348z"/>
	<path clip-path="url(#SVGID_2_)" fill="#FFFFFF" d="M752.782,462.165l6.551,45.848c0.471,1.758,1.989,2.108,2.692,2.576
		c0.585,0.582,0.817,1.639,0.817,1.639h-19.299c0,0,0.232-1.057,0.935-1.639c0.818-0.586,2.922-1.051,2.922-4.097l-6.08-41.872
		l-0.702-2.455c-0.937-3.159-2.689-5.615-6.551-5.615h-0.466c-3.159,0-5.85,2.569-5.85,5.848v44.095
		c0,3.046,1.987,3.511,2.924,4.097c0.703,0.582,0.822,1.639,0.822,1.639h-19.187c0,0,0.118-1.057,0.816-1.639
		c0.935-0.586,2.926-1.051,2.926-4.097V456.55c0-3.045-3.742-5.733-3.742-5.733s3.742-2.693,3.742-5.732v-26.555
		c0-3.04-1.991-3.506-2.926-4.095c-0.698-0.585-0.816-1.634-0.816-1.634h38.832c6.437,0,11.699,5.263,11.699,11.694v20.355
		c0,4.56-2.688,8.541-6.549,10.525C753.484,456.783,751.847,459.119,752.782,462.165 M733.602,444.851h11.695
		c3.158,0,5.847-2.689,5.847-5.85v-8.653c0-3.159-2.688-5.853-5.847-5.853h-11.695c-3.159,0-5.85,2.693-5.85,5.853v8.653
		C727.752,442.161,730.442,444.851,733.602,444.851"/>
	<path clip-path="url(#SVGID_2_)" fill="#FFFFFF" d="M825.189,412.801c0,0-0.118,1.049-0.817,1.634
		c-1.173,1.055-2.341,0.47-4.564,4.095v-0.113l-0.353,0.702c0,0-8.304,16.607-12.165,24.212c-0.815,2.104,2.225,3.625,2.225,3.625
		s-5.03,2.223-6.434,7.723c-0.236,1.283-0.236,2.338-0.236,3.392v48.423c0,3.046,1.991,3.511,2.813,4.097
		c0.697,0.582,0.93,1.639,0.93,1.639h-19.299c0,0,0.237-1.057,0.935-1.639c0.823-0.586,2.927-1.051,2.927-4.097v-48.423
		c0-1.054-0.117-2.108-0.35-3.392c-1.403-5.5-6.433-7.723-6.433-7.723s3.04-1.521,2.223-3.625l-12.517-24.914v0.113
		c-2.224-3.625-3.392-3.04-4.564-4.095c-0.698-0.585-0.817-1.634-0.817-1.634h20.705c0,0-0.118,1.049-0.821,1.634
		c-0.7,0.589-2.337,1.406-1.753,3.159l7.485,14.857c1.403,2.921,3.863,2.921,5.264,0l7.486-14.857
		c0.586-1.753-1.055-2.57-1.752-3.159c-0.703-0.585-0.821-1.634-0.821-1.634H825.189z"/>
</g>
</svg>
