<?xml version="1.0" encoding="utf-8"?>
<!-- Generator: Adobe Illustrator 16.0.3, SVG Export Plug-In . SVG Version: 6.00 Build 0)  -->
<!DOCTYPE svg PUBLIC "-//W3C//DTD SVG 1.1//EN" "http://www.w3.org/Graphics/SVG/1.1/DTD/svg11.dtd">
<svg version="1.1" id="Layer_1" xmlns="http://www.w3.org/2000/svg" xmlns:xlink="http://www.w3.org/1999/xlink" x="0px" y="0px"
	 width="512px" height="512px" viewBox="0 0 512 512" enable-background="new 0 0 512 512" xml:space="preserve">
<path fill="#FFFFFF" d="M256,0C114.637,0,0,114.636,0,256s114.637,256,256,256s256-114.637,256-256S397.364,0,256,0z
	 M289.028,400.566c-62.996,1.086-86.859-44.875-86.859-77.227v-94.48h-29.27v-37.352c43.875-15.82,54.422-55.391,56.898-77.934
	c0.172-1.551,1.391-2.16,2.086-2.16h42.348v73.664h57.875v43.785h-58.074v90.02c0.188,12.238,4.68,29.121,27.832,28.5
	c7.668-0.191,17.949-2.422,23.328-4.988l13.906,41.23C333.887,391.308,310.281,400.203,289.028,400.566z"/>
</svg>
